<?xml version="1.0" encoding="utf-8"?>
<!-- Generator: Adobe Illustrator 22.0.1, SVG Export Plug-In . SVG Version: 6.00 Build 0)  -->
<svg version="1.1" id="Layer_2" xmlns="http://www.w3.org/2000/svg" xmlns:xlink="http://www.w3.org/1999/xlink" x="0px" y="0px"
	 viewBox="0 0 528 394.1" style="enable-background:new 0 0 528 394.1;" xml:space="preserve">
<style type="text/css">
	.st0{fill:#FFFFFF;}
</style>
<g>
	<g>
		<g>
			<path class="st0" d="M81.3,291v-30H44.8v30h-14v-74.2h14v31.3h36.5v-31.3h13.9V291H81.3z"/>
			<path class="st0" d="M181.3,254.2c-0.2,19.2-12,38.4-38.1,38.4c-26.1,0-38.2-18.8-38.2-38.3c0-19.5,12.5-39.1,38.2-39.1
				C168.7,215.2,181.5,234.8,181.3,254.2z M118.8,254.5c0.3,12.2,6.9,25.2,24.4,25.2c17.5,0,24.1-13.2,24.3-25.3
				c0.2-12.5-6.8-26.5-24.3-26.5C125.7,227.9,118.5,242,118.8,254.5z"/>
			<path class="st0" d="M257.4,290.9h-16.7l-21.6-24.8h-13.5v24.8h-14v-74.3c11.8,0,23.5,0.1,35.3,0.1c17.5,0.1,26.7,11.8,26.7,24.6
				c0,10.2-4.7,20.5-18.8,23.3l22.5,25.3V290.9z M205.7,229.7v23.8H227c8.9,0,12.7-5.9,12.7-11.9c0-5.9-3.9-11.9-12.7-11.9H205.7z"
				/>
			<path class="st0" d="M263.2,290.9v-74.2h13.9v74.2H263.2z"/>
			<path class="st0" d="M289.1,216.7h57.1v6.6l-38.5,54.4h38.5v13.3h-58v-8.1l37.6-53h-36.7V216.7z"/>
			<path class="st0" d="M427.6,254.2c-0.2,19.2-12,38.4-38.1,38.4c-26.1,0-38.2-18.8-38.2-38.3c0-19.5,12.5-39.1,38.2-39.1
				C415.1,215.2,427.8,234.8,427.6,254.2z M365.1,254.5c0.3,12.2,6.9,25.2,24.4,25.2c17.5,0,24.1-13.2,24.3-25.3
				c0.2-12.5-6.8-26.5-24.3-26.5C372,227.9,364.8,242,365.1,254.5z"/>
			<path class="st0" d="M486.7,216.6h14v74.3H492v0.1l-39-50.2v50.1h-14v-74.2h11.3l36.4,46V216.6z"/>
		</g>
		<g>
			<path class="st0" d="M31.8,328.9v11.4h-2.5v-33.1c4.8,0,9.7,0,14.5,0c14.4,0,14.4,21.6,0,21.6H31.8z M31.8,309.7v17h11.9
				c11,0,11-17,0-17H31.8z"/>
			<path class="st0" d="M100.1,340.4h-3.4l-11.4-12.5h-9v12.5h-2.5v-33.1c4.9,0,9.7,0,14.5,0c7.2,0,10.8,5.1,10.9,10.3
				c0,5.4-3.5,10.1-10.7,10.1L100.1,340.4z M76.3,325.4H88c5.8,0,8.3-3.3,8.4-7.9c0-3.9-2.6-7.9-8.1-7.9h-12V325.4z"/>
			<path class="st0" d="M149.8,323.9c0,8.7-5.6,17-16.7,17c-11.1,0-16.7-8.4-16.7-17.1c0-8.9,5.5-17,16.7-17
				C144.3,306.8,149.9,315,149.8,323.9z M119,323.8c0,7.5,4.8,14.7,14.2,14.7c9.4,0,14.2-7.3,14.2-14.7c0-7.6-4.7-14.7-14.2-14.7
				C123.7,309.2,118.9,316.1,119,323.8z"/>
			<path class="st0" d="M197.1,323.5c0.2,8.4-5.2,16.9-16.8,16.9c-3.7,0-7.5,0-11.2,0v-33.1c3.7,0,7.5,0,11.2,0
				C191.6,307.3,197,315.3,197.1,323.5z M171.7,309.7v28.2h8.6c9.8,0,14.4-7.4,14.2-14.4c-0.1-6.9-4.7-13.7-14.2-13.7H171.7z"/>
			<path class="st0" d="M241.8,307.3v20.5c0,17.3-25.3,17.3-25.3,0v-20.5h2.5v20.5c0,14.2,20.3,14.2,20.3,0v-20.5H241.8z"/>
			<path class="st0" d="M289.5,335.8c-3.3,3.3-7.7,5-12,5c-11.1,0-17-7.8-17-16.7c-0.1-8.8,5.7-17.1,17-17.1c4.3,0,8.7,1.7,12,5
				l-1.7,1.5c-2.8-2.8-6.6-4.2-10.3-4.2c-9.6,0-14.6,6.8-14.5,14.7c0.1,7.7,5,14.5,14.5,14.5c3.7,0,7.5-1.4,10.3-4.2L289.5,335.8z"
				/>
			<path class="st0" d="M318,309.6H306v-2.3h26.4v2.3h-12v30.7H318V309.6z"/>
			<path class="st0" d="M350.9,340.4v-33.1h2.5v33.1H350.9z"/>
			<path class="st0" d="M407.1,323.9c0,8.7-5.6,17-16.7,17c-11.1,0-16.7-8.4-16.7-17.1c0-8.9,5.5-17,16.7-17
				C401.6,306.8,407.2,315,407.1,323.9z M376.3,323.8c0.1,7.5,4.8,14.7,14.2,14.7c9.4,0,14.2-7.3,14.2-14.7
				c0-7.6-4.7-14.7-14.2-14.7C381,309.2,376.2,316.1,376.3,323.8z"/>
			<path class="st0" d="M427.8,307.3l22.2,27.3v-27.3h2.5v33.1h-1l-22.3-27.3v27.3h-2.5v-33.1H427.8z"/>
			<path class="st0" d="M495.5,313.7c-2.4-3.9-6.3-4.4-10-4.5c-3.9,0-10,1.4-10,6.7c0,4.2,4.5,5.2,10.1,6.2c6.4,1.2,13,2.4,13,9.5
				c-0.1,7.5-7.6,9.3-13.1,9.3c-5.1,0-11-2.1-13.6-7.2l2.3-1.1c2,4,7.2,6,11.3,6c4.1,0,10.5-1.1,10.5-7c0.1-5-5.4-6-10.9-7.1
				c-6-1.2-12.2-2.4-12.2-8.5c-0.1-7,7.1-9.2,12.6-9.2c4.7,0,8.8,0.8,12.1,5.6L495.5,313.7z"/>
		</g>
	</g>
	<g>
		<path class="st0" d="M175.8,51.4H31.6v116.3c38.9-24.6,88.4-43.2,144.2-53.1V51.4z"/>
		<path class="st0" d="M338.1,111.1V51.4H193.9v60.3c23.9-3.3,48.8-5.1,74.4-5.1C292.3,106.6,315.6,108.2,338.1,111.1z"/>
		<path class="st0" d="M500.4,51.4H356.2v62.4c55.4,9.3,104.9,27.1,144.2,51V51.4z"/>
	</g>
	<g>
		<path class="st0" d="M175.8,195.6v-65.4C118.7,142.4,69,163.9,31.6,191.6v3.9H175.8z"/>
		<path class="st0" d="M338.1,195.5v-74.2c-17.1-1.7-34.7-2.5-52.6-2.5c-31.8,0-62.5,2.7-91.6,7.8v68.9H338.1z"/>
		<path class="st0" d="M500.4,195.5v-28.3c-40.5-21.3-89.8-36.6-144.2-43.8v72.2H500.4z"/>
	</g>
</g>
</svg>
